<?xml version="1.0" encoding="utf-8"?>
<!-- Generator: Adobe Illustrator 27.4.0, SVG Export Plug-In . SVG Version: 6.00 Build 0)  -->
<svg version="1.1" id="Layer_1" xmlns="http://www.w3.org/2000/svg" xmlns:xlink="http://www.w3.org/1999/xlink" x="0px"
     y="0px" viewBox="0 0 40.2 40.5" fill="currentColor">
    <path d="M20.1,40.1c-2.8,0-5.4-0.5-7.9-1.6c-2.4-1-4.6-2.5-6.3-4.3s-3.2-3.9-4.2-6.4S0.1,22.8,0.1,20s0.5-5.4,1.6-7.8
	s2.4-4.5,4.2-6.3s3.9-3.2,6.3-4.2s5.1-1.5,7.9-1.5s5.4,0.5,7.9,1.5s4.5,2.4,6.3,4.2c1.8,1.8,3.2,3.9,4.2,6.3s1.5,5,1.5,7.8
	s-0.5,5.4-1.5,7.9s-2.5,4.6-4.2,6.4c-1.8,1.8-3.9,3.2-6.3,4.3S22.9,40.1,20.1,40.1z M20.1,37.2c1.2-1.2,2.1-2.6,2.9-4.1
	c0.8-1.5,1.4-3.4,1.9-5.5h-9.7c0.5,2,1.1,3.8,1.9,5.4C18,34.6,18.9,36,20.1,37.2z M15.9,36.6c-0.8-1.3-1.6-2.6-2.1-4.1
	c-0.6-1.5-1.1-3.1-1.5-5H4.7c1.3,2.4,2.7,4.2,4.4,5.6S13,35.7,15.9,36.6z M24.4,36.6c2.4-0.8,4.6-1.9,6.5-3.5s3.5-3.4,4.6-5.5h-7.4
	c-0.4,1.8-0.9,3.4-1.5,4.9C25.9,33.9,25.2,35.3,24.4,36.6z M3.7,24.6h7.9c-0.1-0.9-0.2-1.7-0.2-2.4c0-0.7,0-1.4,0-2.1
	c0-0.8,0-1.6,0.1-2.2c0-0.6,0.1-1.4,0.2-2.2h-8c-0.2,0.8-0.4,1.5-0.5,2.1c-0.1,0.6-0.1,1.4-0.1,2.2c0,0.9,0,1.6,0.1,2.3
	C3.3,23,3.5,23.8,3.7,24.6z M14.8,24.6h10.8c0.1-1,0.2-1.9,0.2-2.5c0-0.6,0-1.3,0-2c0-0.7,0-1.3,0-1.9c0-0.6-0.1-1.4-0.2-2.5H14.8
	c-0.1,1-0.2,1.9-0.2,2.5c0,0.6,0,1.3,0,1.9c0,0.7,0,1.4,0,2S14.6,23.5,14.8,24.6z M28.5,24.6h8c0.2-0.8,0.4-1.5,0.5-2.2
	c0.1-0.7,0.1-1.5,0.1-2.3c0-0.9,0-1.6-0.1-2.2c-0.1-0.6-0.2-1.4-0.5-2.1h-7.9c0.1,1.2,0.2,2.1,0.2,2.7c0,0.6,0,1.2,0,1.7
	c0,0.7,0,1.4-0.1,2.1C28.7,22.8,28.6,23.6,28.5,24.6z M28,12.6h7.5c-1.1-2.3-2.6-4.2-4.5-5.8s-4.1-2.6-6.6-3.2
	c0.8,1.2,1.5,2.6,2.1,4S27.6,10.7,28,12.6z M15.3,12.6H25c-0.4-1.8-1-3.5-1.9-5.1c-0.9-1.7-1.9-3.1-3-4.4c-1.1,0.9-2,2.1-2.7,3.6
	S16,10.1,15.3,12.6z M4.7,12.6h7.6c0.4-1.8,0.8-3.4,1.4-4.8c0.6-1.4,1.3-2.8,2.1-4.1c-2.5,0.6-4.7,1.7-6.6,3.2S5.9,10.3,4.7,12.6z"
    />
</svg>
