<?xml version="1.0" encoding="utf-8"?>
<!-- Generator: Adobe Illustrator 27.4.0, SVG Export Plug-In . SVG Version: 6.00 Build 0)  -->
<svg version="1.1" id="Layer_1" xmlns="http://www.w3.org/2000/svg" xmlns:xlink="http://www.w3.org/1999/xlink" x="0px" y="0px"
	 viewBox="0 0 75.4 75.5" style="enable-background:new 0 0 75.4 75.5;" xml:space="preserve">
<style type="text/css">
	.st0{fill:#0288D1;}
	.st1{fill:#FFFFFF;}
</style>
<path class="st0" d="M75.1,64.7c0,5.8-4.7,10.4-10.4,10.4H10.5c-5.8,0-10.4-4.7-10.4-10.4V10.6c0-5.8,4.7-10.4,10.4-10.4h54.2
	c5.8,0,10.4,4.7,10.4,10.4V64.7z"/>
<path class="st1" d="M12.6,27.2H23v35.4H12.6V27.2z M17.8,23.1L17.8,23.1c-3.2,0-5.2-2.3-5.2-5.2c0-3,2.1-5.2,5.2-5.2
	c3.2,0,5.1,2.2,5.2,5.2C23,20.8,21,23.1,17.8,23.1z M62.6,62.7H52.2v-19c0-4.6-2.6-7.7-6.6-7.7c-3.1,0-4.8,2.1-5.6,4.1
	c-0.3,0.7-0.2,2.7-0.2,3.8v18.8H29.3V27.2h10.4v5.4c1.5-2.3,3.9-5.4,9.9-5.4c7.5,0,13,4.7,13,15.2L62.6,62.7L62.6,62.7z"/>
</svg>
