<?xml version="1.0" encoding="utf-8"?>
<!-- Generator: Adobe Illustrator 27.4.0, SVG Export Plug-In . SVG Version: 6.00 Build 0)  -->
<svg version="1.1" id="Layer_1" xmlns="http://www.w3.org/2000/svg" xmlns:xlink="http://www.w3.org/1999/xlink" x="0px" y="0px"
	 viewBox="0 0 73.8 74.1" style="enable-background:new 0 0 73.8 74.1;" xml:space="preserve">
<style type="text/css">
	.st0{fill:#FFFFFF;}
</style>
<path class="st0" d="M66.9,0.5h-60c-3.7,0-6.7,3-6.7,6.7v60c0,3.7,3,6.7,6.7,6.7h60c3.7,0,6.7-3,6.7-6.7v-60
	C73.6,3.5,70.6,0.5,66.9,0.5z M23.4,60.5h-9.8V28.9h9.8V60.5z M18.4,24.3c-3.2,0-5.7-2.6-5.7-5.7s2.6-5.7,5.7-5.7
	c3.2,0,5.7,2.6,5.7,5.7C24.2,21.8,21.6,24.3,18.4,24.3z M60.3,60.5h-9.8V45.1c0-3.7-0.1-8.4-5.1-8.4c-5.1,0-5.9,4-5.9,8.1v15.7h-9.8
	V28.9H39v4.3h0.1c1.3-2.5,4.5-5.1,9.3-5.1c10,0,11.8,6.6,11.8,15.1C60.3,43.1,60.3,60.5,60.3,60.5z"/>
</svg>
