<?xml version="1.0" encoding="utf-8"?>
<!-- Generator: Adobe Illustrator 27.4.0, SVG Export Plug-In . SVG Version: 6.00 Build 0)  -->
<svg version="1.1" id="Layer_1" xmlns="http://www.w3.org/2000/svg" xmlns:xlink="http://www.w3.org/1999/xlink" x="0px" y="0px"
	 viewBox="0 0 87 73.8" fill="#fff">
<path d="M43.5,0.1c-14,0-32.1,3.5-32.1,3.5l0,0.1C5,4.7,0.1,10.2,0.1,16.8v20v0v20v0c0,6.6,4.8,12.1,11.3,13.1l0,0
	c0,0,18.1,3.5,32.1,3.5S75.5,70,75.5,70l0,0c6.5-1,11.3-6.6,11.3-13.2v0v-20v0v-20c0-6.6-4.8-12.1-11.3-13.2l0,0
	C75.5,3.6,57.4,0.1,43.5,0.1z M33.5,21.5l26.7,15.3L33.5,52.2V21.5z"/>
</svg>
