<?xml version="1.0" encoding="utf-8"?>
<!-- Generator: Adobe Illustrator 27.4.0, SVG Export Plug-In . SVG Version: 6.00 Build 0)  -->
<svg version="1.1" id="Layer_1" xmlns="http://www.w3.org/2000/svg" xmlns:xlink="http://www.w3.org/1999/xlink" x="0px" y="0px"
	 viewBox="0 0 1057.9 844.9" style="enable-background:new 0 0 1057.9 844.9;" xml:space="preserve">
<style type="text/css">
	.st0{opacity:0.5;}
</style>
<image style="display:none;overflow:visible;" width="1400" height="1400" xlink:href="3cimeB.jpg"  transform="matrix(1 0 0 1 -186.6522 -244.6152)">
</image>
<g class="st0">
	<path d="M125.5,716.6c-1.7-2.8-1.2-6.8-5.4-5c-1.5-3.5-4.9-6-5.6-9.8c-0.5-2.9-1.9-5.1-3.9-7.4c-4.1-4.8-6.1-11-9.3-16.4
		c-4.1-7-5.3-15.4-11-21.7c-1.2-1.4-2.2-2.8-3.9-3.7c-1.3-0.7-2.4-1.5-2.4-3.4c0.3-9.2-3.7-16.6-10.7-22.3c-1.6-1.3-2.8-2.9-3.6-4.7
		c-1.8-3.9-4.1-7.4-7.2-10.6c-3.5-3.6-3.1-9-3.6-13.7c-0.3-3.1-0.9-5.8-2.8-8.3c-3.9-5.3-3.6-11.7-3.6-17.8c0-4.6-1.1-8.9-3.7-12.2
		c-4.6-6-6-13-7.1-20c-0.7-4.3-2.9-6.3-6.5-8.5c-9.8-5.6-17.8-12.3-18-25.5c-0.2-8.5,1.3-16.3,3-24.4c1.2-5.8-1.7-11-4.2-16
		c-1-1.9-2.2-3.7-2.6-5.9c-1.1-6.8-3.4-13.3-3.6-20.3c-0.2-6.5-3.9-11.9-6.6-17.6c-0.4-0.9-1.9-2,0.2-2.6c6.3-2.1,6.6-7.9,7.5-12.9
		c1.6-9.1,6.1-16.4,12.9-22.3c1.5-1.3,3.7-0.5,5.5-0.9c6.9-1.7,10-8,15.5-11.2c2.6-1.5,0.8-3.9,1.9-5.8c5.5-9.7,8.2-20.4,9.9-31.4
		c0.3-2,0.9-3.7,3.1-3.9c3.4-0.4,4.3,2.3,5.5,5c2.1-10.3,2.4-20.5,5.1-30.5c0.9-3.4-0.4-9-3.5-13.5c-2.8-4-2.6-10.1-2.6-15.3
		c-0.1-17.5,3.1-34.6,6.8-51.6c1.5-6.8,4.2-8.4,11.5-8.9c5.3-0.4,10.3-3.4,15.9-3.2c0.4,0,0.9-0.3,1.3-0.5c-1.4-1.4-1.9-2.8,0.4-3.8
		c2.8-1.1,5.6-2.2,8.4-3c2-0.5,2.9,1.2,3.5,2.8c1.7,5,5.2,9.4,4.2,15.2c2.2-4.6,3.2-9.5,4.5-14.2c2.7-9.1,8.2-16.1,14.1-23.1
		c0.7-0.9,1.6-1.9,1.7-3c0.7-6.2,3.6-11.9,4.4-18.2c0.8-6.7,2.5-13.6,6.3-19.6c2.4-3.9,8.7-4.4,11.4-0.4c4.2,6,5.9,13.2,9,19.8
		c0.9,2,1.4,4.1,2.5,6c1,1.7,2.3,3.7,4.6,3c2-0.7,3-2.6,2.8-4.8c-0.4-4.2,0.6-7.9,3.6-11c0.6-0.6,0.2-2.3,1.6-2.2
		c1.4,0.1,1.7,1.4,2,2.5c0.4,1.5-0.5,3.3,1.2,5c0.7-2.6,1-4.9,0.5-7.3c-1-5.1,1.1-7.2,6.2-6.7c0.1-2,0-4,0.4-5.9
		c0.6-2.4,0.3-5.8,3.9-6.2c2.9-0.3,6.5-1.6,7.4,3.2c0.2,0.8,1.2,1.3,2,0.9c0.9-0.4,1.8-1.2,1.5-2.3c-1.6-5.4,1.6-10.4,1.2-15.8
		c-0.2-2.5,1.7-3.8,3.5-5.4c4.5-4.2,10.8-5,15.5-9.1c6-5.3,15.5-0.2,18.6,6.8c6.2,14,4.5,29,6.7,43.5c1.5,9.7-0.1,19.9,1.2,29.8
		c1.2,8.6,2.3,17.1,3.3,25.7c0.4,3.4,0.8,6.9-0.8,10.3c-0.7,1.5-0.7,3.3,0,4.9c1.7,4.1,2.1,8.4,1.9,12.8c-0.2,4.3,2.8,7.3,3.9,11.1
		c2,7.1,3.8,14.2,5.8,21.7c1.7-2.2,3.1-4.4,3.2-6.8c0.5-15.8,9.6-28.9,14.1-43.4c4-12.5,7.4-25.3,8.5-38.2
		c0.5-6.1,3.1-10.9,4.1-16.4c1.1-6.1,4.6-10.4,7.8-15c1.9-2.8,2.3-6.3,2.8-9.3c1.3-6.7,6.5-10.3,10.1-15c3.5-4.6,5.6-10.1,9.9-14.4
		c1.8-1.8,0.3-6,2.2-8.7c0.7-1.1,0.9-2.6,1.8-3.5c3.4-3.4,7.2-6.5,10.5-10.1c1.9-2,4.7,0.3,6.3-2.2c1-1.5,2-2.6-0.9-2.3
		c-2.1,0.2-1.8-1.2-1.3-2.2c1.1-2.1,2.1-4.4,5-5.1c3.9-0.9,6.4-3.8,8.4-7.2c0.6-1.1,2-2.4-1.1-2.9c-2-0.3-0.6-2.6,0-3.7
		c2.1-4,5.4-7.4,7-11.8c0.5-1.5,2.4-1.7,3.9-1.7c3.5,0.1,5.7-1.5,6.7-4.8c0.3-0.9,0.5-2.2,1.8-1.9c1.2,0.2,1.2,1.6,1.1,2.5
		c-0.8,4.8,1.3,7,6,8.4c2.4,0.7,2.4,0.9,3.4-1.4c2-4.4,3.7-8.9,4.6-13.6c0.9-4.8-1.5-7.1-6.2-6c-3.1,0.8-3.7-2.8-6.1-3.2
		c0.8-2.6,2.4-5,4.9-6c2-0.8,3-1.4,3.9-3.6c1.3-3.4,3.5-1.1,5.8,1.7c-0.9-5.2,3.4-6.8,3.5-10.4c0-0.4,0.4-0.9,0.7-1.3
		c3.6,3.3,4.7-1.9,7.2-2.2c4-0.4,5.8,2.8,8.3,4.9c1.5,1.3,3,1.5,4.6,0.8c1.3-0.5,1.6-2.1,0.8-3c-1.1-1.3-0.7-3.7-3.5-3.9
		c-2.4-0.2-1.5-2.7-1.5-4.3c0-1.8,0.6-4.3,3-3.3c2.7,1.1,5.3,1.2,8,1.6c3.3,0.5,5.6,1.9,5.6,6.6c1.5-2.1,1.4-4.8,4-3.3
		c0.7,0.4,2.1,0.5,2.5-0.8c0.4-1.3-1.5-3.9,1.6-3.5c2.3,0.3,5.2,0,6.7,2.6c0.1,0.1,0.2,0.4,0.3,0.4c8.2,3.1,8.9,11.4,12.2,17.9
		c0.4,0.9,0.9,1.9,0.8,2.8c-0.4,4.3,0.5,7.5,5.6,8c1.5,0.2,2.7,1.5,3.1,3c1.2,4.2,3.1,7.9,6.2,11.1c2.5,2.6,0.4,6.4,1.2,9.6
		c0.5,2,0,5.2,2.8,5c2.8-0.2,6.7,2.2,8.6-2.3c1.2-3.1,4.4-4.5,6.5-6.8c1.6-1.7,3.7-1.1,5.2,0.8c1.4,1.7,2.1,3.7,2.3,6
		c0.7,8.3,4.1,15.8,7.8,22.9c2.2,4.2,6.4,7.6,10.3,10.6c2.2,1.7,3,3,2.9,5.6c-0.2,4.1,3.1,8.1,6.9,8c4.3,0,6,2.5,5.7,5.9
		c-1.2,14.3,2.4,28.1,4.1,42.1c0.2,1.8,0.6,3.6-0.6,5.3c-4,5.4-3.6,12.1-2.8,17.8c1.5,10.6,1.3,21.2,2.3,31.8
		c0.7,7.3,3.8,14,3.8,21.5c0,6.9,1.2,13.9,1.3,20.9c0,5.1,0.9,9.6,4.8,13.6c2.2,2.2,3.2,5.7,4.9,8.9c2.4-1.9,4.1-6.2,7.3-4.8
		c3.6,1.6,2.2,6.1,2.9,9.5c2-4.2,3.2-8.7,5.4-12.8c2.9-5.2,6.7-9.5,9.8-14.4c3.5-5.5,5.9-11.5,6.4-17.8c0.7-8.6,2.8-17,3.1-25.6
		c0.2-6.1,3.6-11.7,7.1-16.3c4.1-5.3,5.6-11.5,8.9-17c3.1-5.3,5.5-11.1,8.8-16c2.9-4.3,7.4-8,8.7-13.2c1.8-6.9,7.7-7.9,12.7-9.7
		c5.4-2,7-5.3,6.5-10.5c-0.4-4.3,1.8-8.4,4.7-10.3c8.4-5.4,14.4-11.9,15.3-22.3c0.3-3.6,2.4-6.3,5.4-8.5c-1.1-1.7-3,1.2-3.1-0.5
		c-0.1-1.4,0.3-3.5,2.1-4.5c1.5-0.8,3.2-1.1,4.4-2.2c2.6-2.4,5-5.1,3.4-9.3c-0.5-1.5-0.8-3.2,0.3-4.9c1.7,1.1,1.6,3.8,4.2,4
		c1.7-2.2-3.2-4.3-0.4-6.5c1.8-1.4,3.8-2.7,5.5-4.3c1.3-1.1,2.5-1.5,4.1-1.1c3.5,0.9,6.7,1.1,7.9-3.4c0.3-0.9,1.3-1.5,1.9-0.6
		c4.7,6.8,9.9,2.3,14.9,1.1c0.4-1.1-0.4-1.4-0.9-1.5c-2.4-0.4-4.5-1.3-3-4.2c1.4-2.6,4.1-1.2,5.2-0.1c2.9,2.8,6.2,5.8,7.6,9.5
		c1.4,3.9,5.4,4.2,7.2,7.1c0.5,0.8,1.5-0.1,2.2-0.3c7-2.7,10.4-1.6,15.1,4.4c1.5,1.9,3.4,3.6,5.4,5c2,1.4,4,3.1,4.5,5.2
		c0.9,4,2.7,5.6,6.9,4.9c1.7-0.3,3.2,1.4,3.8,2.9c2.5,7,6.3,13.6,4.7,21.5c-0.4,1.8-0.7,4,2.4,3.4c6.4-1.3,11,2.5,10.8,8.8
		c-0.3,6.6,0,6.8,6.7,7c9.6,0.3,18.2,7,20.9,16.2c0.5,1.7,1.3,3.3,2.8,4c7.9,3.1,10.7,10.5,14.2,17.2c0.5,0.9,0.6,2,1.3,2.7
		c12.4,11.5,12.3,28.6,19,42.6c0.2,0.4,0.2,1.1,0.4,1.4c5.2,6.9,1.9,13.8-0.3,20.5c-0.5,1.7-1.1,3.2,0.2,4.6
		c0.6,0.6,1.2,1.4,2.1,0.7c6.2-4.8,13.2-7.6,20.8-9.1c0.5-0.1,1-0.2,1.4-0.5c8-6.9,15.8-2,23.7,0.4c10.5,3.1,15.9,12.2,23.2,19.1
		c9.9,9.3,13.5,21.8,19.8,33c2.7,4.8,4.8,9.9,8.7,13.9c2.2,2.2,2.6,5.3,3.7,8.3c2.5-0.5,2.3-3.3,3.8-4.3c2.8-1.8,3.7-5.9,8.6-5.3
		c2.8,0.3,4.8-3.3,5.4-6.3c1-4.8,3.1-8.7,8.5-8.8c5.4-0.2,12.7,6.4,13.7,11.1c1.3,6.5,0.6,13,0.6,19.4c0,5.1,2.2,9.5,5.5,12.4
		c5.6,4.9,7.6,11.5,10.1,17.8c1.2,2.9,2.1,6.3,2.7,9.5c0.3,1.5,1.1,2.8,2.5,3.6c4.3,2.5,6,6.5,6.4,11.2c0.7,8.3,1.1,16.6,2,24.9
		c0.8,7.1,0.5,14.8,7.6,19.6c0.9,0.6,0.9,1.8,0.7,2.8c-1.1,5.4,1.7,9.2,5.6,12c10.8,7.6,15.5,18.3,17,30.9c0.3,2.8,0.9,5.6,1.4,8.4
		c0.6,3.5,0.8,6.8-1.8,9.9c-1.9,2.1-2.4,5.2-1.3,7.6c4.6,10,0.6,19-2.9,27.9c-2.7,7.1-6.4,13.7-6.4,21.8c0,6.8-4.8,12.6-6.1,19.3
		c-0.2,1-1.2,2.2-2.1,2.6c-5.8,2.5-5.3,7.3-4.2,11.9c2.3,9.8,3.1,19.8,2.2,29.7c-0.6,6.6-1.2,13.5-3.6,20c-0.9,2.5-1.8,5.2-3.9,6.9
		c-6.1,4.7-8.2,11.9-11.9,18.1c-1,1.6-1.5,3.5-1.1,5.3c1.1,4.8-1.8,7.7-5.3,9.1c-5.6,2.2-9.2,6.2-12.2,11c-0.9,1.4-2.2,1.8-3.6,2.3
		c-4.3,1.8-8.4,4-9.5,9.2c-0.4,1.7-1.7,2.9-2.9,4c-4.5,4.2-9,8.4-13.7,12.3c-2.7,2.3-5.4,2.5-7.4-1.2c-1.8-3.4-4.2-0.8-5.6,0.2
		c-3.8,2.5-5.4,6.6-6,11c-0.7,4.9-0.7,9.9-7.9,8.9c-0.3,0-0.9,0.4-1.1,0.8c-4.2,6.3-8.8,2.9-13.7,1c-3.5-1.3-5.9,1.8-7.9,4.1
		c-2.1,2.3-2.9,5.6-7.3,2.7c-1.7-1.2-3.4,1.6-4.3,3.3c-2.1,3.5-3.9,7.1-8.9,6.7c-1.3-0.1-1.5,1-1.9,1.9c-0.7,1.9-2.1,2.9-3.9,3.6
		c-4.7,2-9.7,3.2-13.5,6.8c-1.2,1.2-3.1,1.2-4.7,0.4c-5.3-2.4-11.1-3.1-16.6-4.5c-1.9-0.5-3.5-1.2-4.5-2.8c-1-1.6-1.9-3.2-4.3-2.7
		c-2.2,0.4-2.2-1.6-2.8-2.8c-0.8-1.5-1.6-3.2-3.6-3c-2.3,0.2-2.5,2.4-2.9,4.2c-0.2,1.1-0.1,2.3-0.3,3.5c-0.2,1-1.4,2.4-1.8,1.9
		c-1.9-2.8-7.8-0.9-7.4-6.4c0.1-1.7,0.4-4.4-3.2-3.1c-3.3,1.2-2-3.2-4-3.9c-1.9,0.9-1.9,3.1-2.9,4.5c-0.8,1.1-1.5,1.5-2.9,1.5
		c-1.7-0.1-1.8-1.2-1.9-2.4c-0.4-2.5-1.3-4.8-4-6.6c0,5.4-5.8,6.7-7.2,11.3c-0.6,2.1-2.9,1.4-4,0c-1.4-1.8-3.1-2.3-5.1-2.7
		c-2.6-0.5-4.2,0.4-4.3,3.3c-0.1,3.9-2,6.9-4.8,9.6c-3,3-4.5,6.8-6.4,10.5c-3.8,7.3-8.4,14.3-12.8,21.2c-1.3,2-3.1,1.4-3.7-0.7
		c-2-7.4-6-13.8-9.2-20.8c-2.9,2.4-6.4,4.1-8.6,7.4c-0.4,0.6-1.7,1.4-2,1.2c-3.1-2.1-6.5,1.3-8,0.7c-3.5-1.5-3.1,0.8-4.2,2.3
		c-4,5.6-6.9,11.5-9.1,18.1c-1.5,4.4-5.8,7.9-9.7,11c-1.3,1.1-2.5,0.6-3.2-0.9c-0.5-1.1-0.8-2.2-1-3.3c-1-3.9-2.7-3.6-4.8-0.9
		c-0.6,0.8-0.8,1.9-2.3,2.2c-2.4-4.1-3-8.9-3.7-13.6c-0.5-3.6-1.3-8.7-4.2-9.2c-2.6-0.4-5.8,3.8-7.1,7.3c-1.4,3.7-3.3,2.5-5.1,0.6
		c-5.9-5.8-12.9-6.5-20.7-5c-4.1,0.8-6.9-2.5-9-5.2c-2.4-3-4.5-6.7-4.5-10.9c0-3.9-2.4-5.3-5.9-5.2c-3.7,0.1-3.9,2.9-3.9,5.7
		c0,0.7,0.1,1.3,0,2c-0.1,1.3,0.1,3-1.7,3.1c-1.5,0.1-1.6-1.4-1.9-2.5c-0.2-0.8-0.6-1.5-1.8-2.3c-0.5,4.2-1.3,8.5-1.6,12.7
		c-0.6,8.4-6.6,16-14.9,18.4c-1.5,0.4-2.2,1.4-2.8,2.5c-1.3,2.2-3,4-5.4,5c-2.1,0.9-3.2,2.5-4,4.8c-3.9,11.5-11.9,19.7-22.2,25.5
		c-7.3,4.1-12.6,1.7-14.7-6c-1.4-5-6.8-7.3-8-12.8c-2.4,5.9-7.2,9.1-11.1,13.1c-3.8,4.1-8.3,10.1-7.7,17.3c0.2,2.6-1,4.9-3.3,6.3
		c-2.5,1.5-4.3-0.5-6.3-1.6c-5-2.7-6.3-7.4-7.6-12.3c-0.3-1.3-0.1-3.5-2-3.5c-1.8,0-2.9,1.6-3.2,3.3c-0.3,1.6-0.3,3.9-2.2,4
		c-2.1,0.1-3.1-2.2-3.9-4c-0.9-1.9-1.3-4-3.4-5.3c-4.5-2.8-8.2-6.2-9.1-11.9c-0.3-2.1-1.9-3-4.1-1.9c-3.1,1.5-5.8,3.2-8.6,5.4
		c-5.3,4.3-8.7,10.9-15.5,13.5c-2.7,1-4.9,0.7-6.7-1.6c-3.5-4.3-6.7-8.9-8.7-14.1c-1.9-4.8-5.6-8.5-9-12.2c-2.6-2.8-4.7-5.6-6.5-9
		c-8-14.6-10.4-31.5-18.4-45.9c-3.3-6-5-13-9.5-18.4c-1.8-2.2-1.7-5-1.8-7.6c-0.1-2.9-0.8-5.6-2-8.2c-1.1-2.5-3-3.2-5.2-1.7
		c-2.7,1.7-5.1,2.8-6.9-1c-0.4-0.8-1.1-0.4-1.8-0.3c-6.4,0.3-7.1-4.5-8-9.1c-1.5-7.4-6.4-12.5-11.4-17.5c-0.4-0.4-1.3-0.6-1.8-0.4
		c-2,0.6-4.4,2.3-6.1,0.5c-3-3.2-6.7-6.2-7.9-10.7c-1.1-4.2-2.2-5.1-5.6-1.6c-3.2,3.2-6.2,6.7-11.6,7c-3,0.2-3.6,4.2-4.4,6.7
		c-1.1,3.4-3.5,5.5-5.5,8.1c-0.4,0.5-1.4,1.1-1.5,1c-4.7-4.4-3.4,1.5-4.1,2.6c-1.9,3.3-3.2,6.9-4.8,10.4c-0.5,1-1.7,2.7-2.2,2.5
		c-4.8-1.5-4.5,2.8-6,5.1c-0.6,1-1,2.5-1.9,2.9c-7,2.6-8.9,9.4-12.3,14.9c-1.5,2.4-3.6,4-5.9,5.3c-2.6,1.4-4.7,2.9-5.2,6.2
		c-0.5,2.9-3.2,3.8-5.3,4.9c-3.5,1.7-5.3,4.3-6.2,7.9c-0.5,1.8-1.2,3.6-3.3,4c-2.2,0.4-2.4-1.8-3.5-3c-6.6-7.5-10-16.9-14.8-26.1
		c-2.4,3.7-3.1,7.6-4.8,11.7c-5.6-12.4-12.7-23.5-16.6-36.1c-0.4-1.3,0.1-3.1-2.6-2.4c-1.7,0.5-4.1-1.3-5,1.7
		c-0.4,1.4-0.5,3.3-2.5,3.1c-1.7-0.2-2-2-2.6-3.4c-0.8-1.7-1.3-3.4-2-5.1c-0.6-1.3-1.5-2.5-2.8-0.5c-2.3,3.6-3.6,1.1-4.2-1
		c-1-3.2-1.7-6.5-2.2-9.7c-0.4-2.7-1.9-3.6-4.2-4.1c-2.3-0.5-3.1,0.9-4.2,2.6c-3.6,5.2-5.6,11.2-9.6,16.2c-2.2,2.7-3.9,4.4-6.4,0.8
		c-1.9-2.7-3.1-1-4.7,0.4c-2.1,1.9-4.3,3.1-5.3-1.2c-0.7-2.8-1.7-2.6-3.5-0.5c-2.8,3.1-5.6,5.9-7,10.2c-1.7,5.1-5.7,4.6-10.8,3.3
		c-7.5-1.8-8.9-7.7-11.7-12.9c-0.6-1.2-1.2-2.5-2.2-3.3c-2-1.6-3.5-2.2-4.3,1.5C129.7,705.2,127.5,710.4,125.5,716.6z"/>
</g>
</svg>
